# xmcd CD database file
#
# Track frame offsets:
#	150
#	39970
#	86205
#	125855
#	176350
#	223290
#	288932
#
# Disc length: 4278 seconds
#
# Revision: 0
# Processed by: cddbd v1.5.2PL0 Copyright (c) Steve Scherf et al.
# Submitted via: CDex 1.70beta3
#
DISCID=6710b407
DTITLE=Carlos Kanno - Nettai Super Jam with Dave Valentin
DYEAR=2006
DGENRE=Jazz
TTITLE0=Dolphin Dance
TTITLE1=Meet You at The Coda
TTITLE2=La Rumba Para Debby
TTITLE3=Little Sunflower
TTITLE4=Milestones
TTITLE5=Obsesion
TTITLE6=Bacalao con pan
EXTD=YEAR: 2006
EXTT0=
EXTT1=
EXTT2=
EXTT3=
EXTT4=
EXTT5=
EXTT6=
PLAYORDER=
